<svg width="30" height="30" viewBox="0 0 30 30" fill="none" xmlns="http://www.w3.org/2000/svg">
<g clip-path="url(#clip0_19_841)">
<path d="M27 0H3C1.34315 0 0 1.34315 0 3V27C0 28.6569 1.34315 30 3 30H27C28.6569 30 30 28.6569 30 27V3C30 1.34315 28.6569 0 27 0Z" fill="#246BB5"/>
<path d="M16.9033 13.4299L24.3483 4.7749H22.5833L16.1183 12.2899L10.955 4.7749H5L12.8083 16.1382L5 25.2149H6.765L13.5917 17.2782L19.045 25.2149H25L16.9033 13.4299ZM14.4867 16.2382L13.695 15.1066L7.4 6.10324H10.11L15.19 13.3699L15.9817 14.5016L22.585 23.9466H19.875L14.4867 16.2382Z" fill="white"/>
</g>
<defs>
<clipPath id="clip0_19_841">
<rect width="30" height="30" fill="white"/>
</clipPath>
</defs>
</svg>
